<?xml version="1.0" encoding="UTF-8"?>
<!-- Generator: Adobe Illustrator 24.1.2, SVG Export Plug-In . SVG Version: 6.00 Build 0)  -->
<svg version="1.1" id="icon_briefcase_2_medium" xmlns="http://www.w3.org/2000/svg" xmlns:xlink="http://www.w3.org/1999/xlink" x="0px" y="0px" viewBox="0 0 24 24" style="enable-background:new 0 0 24 24;" xml:space="preserve">
<g>
	<g>
		<path d="M7.7,11.3H4.6c-1.9,0-3.5-1.6-3.5-3.5V4.7c0-1.9,1.6-3.5,3.5-3.5h3.1c1.9,0,3.5,1.6,3.5,3.5v3.1    C11.2,9.8,9.7,11.3,7.7,11.3z M4.6,2.4c-1.3,0-2.3,1-2.3,2.3v3.1c0,1.3,1,2.3,2.3,2.3h3.1c1.3,0,2.3-1,2.3-2.3V4.7    c0-1.3-1-2.3-2.3-2.3H4.6z"/>
	</g>
	<g>
		<path d="M19.4,11.3h-3.1c-1.9,0-3.5-1.6-3.5-3.5V4.7c0-1.9,1.6-3.5,3.5-3.5h3.1c1.9,0,3.5,1.6,3.5,3.5v3.1    C22.8,9.8,21.3,11.3,19.4,11.3z M16.2,2.4c-1.3,0-2.3,1-2.3,2.3v3.1c0,1.3,1,2.3,2.3,2.3h3.1c1.3,0,2.3-1,2.3-2.3V4.7    c0-1.3-1-2.3-2.3-2.3H16.2z"/>
	</g>
	<g>
		<path d="M7.7,22.8H4.6c-1.9,0-3.5-1.6-3.5-3.5v-3.1c0-1.9,1.6-3.5,3.5-3.5h3.1c1.9,0,3.5,1.6,3.5,3.5v3.1    C11.2,21.2,9.7,22.8,7.7,22.8z M4.6,13.9c-1.3,0-2.3,1-2.3,2.3v3.1c0,1.3,1,2.3,2.3,2.3h3.1c1.3,0,2.3-1,2.3-2.3v-3.1    c0-1.3-1-2.3-2.3-2.3H4.6z"/>
	</g>
	<g>
		<path d="M19.4,22.8h-3.1c-1.9,0-3.5-1.6-3.5-3.5v-3.1c0-1.9,1.6-3.5,3.5-3.5h3.1c1.9,0,3.5,1.6,3.5,3.5v3.1    C22.8,21.2,21.3,22.8,19.4,22.8z M16.2,13.9c-1.3,0-2.3,1-2.3,2.3v3.1c0,1.3,1,2.3,2.3,2.3h3.1c1.3,0,2.3-1,2.3-2.3v-3.1    c0-1.3-1-2.3-2.3-2.3H16.2z"/>
	</g>
</g>
</svg>